<mxfile host="Electron" agent="Mozilla/5.0 (Windows NT 10.0; Win64; x64) AppleWebKit/537.36 (KHTML, like Gecko) draw.io/28.1.2 Chrome/138.0.7204.243 Electron/37.4.0 Safari/537.36" version="28.1.2" pages="4">
  <diagram name="Nodes" id="JUHL-aRi3DzxvGZJJdum">
    <mxGraphModel dx="1507" dy="1876" grid="1" gridSize="10" guides="1" tooltips="1" connect="1" arrows="1" fold="1" page="1" pageScale="1" pageWidth="850" pageHeight="1100" math="0" shadow="0">
      <root>
        <mxCell id="0" />
        <mxCell id="1" parent="0" />
        <mxCell id="W7lvZCYJEOEOD-ry5RO5-35" style="rounded=0;orthogonalLoop=1;jettySize=auto;html=1;exitX=0;exitY=1;exitDx=0;exitDy=0;exitPerimeter=0;entryX=0.5;entryY=0;entryDx=0;entryDy=0;" parent="1" source="W7lvZCYJEOEOD-ry5RO5-1" target="W7lvZCYJEOEOD-ry5RO5-14" edge="1">
          <mxGeometry relative="1" as="geometry" />
        </mxCell>
        <mxCell id="W7lvZCYJEOEOD-ry5RO5-36" style="rounded=0;orthogonalLoop=1;jettySize=auto;html=1;exitX=1;exitY=1;exitDx=0;exitDy=0;exitPerimeter=0;entryX=0.5;entryY=0;entryDx=0;entryDy=0;" parent="1" source="W7lvZCYJEOEOD-ry5RO5-1" target="W7lvZCYJEOEOD-ry5RO5-29" edge="1">
          <mxGeometry relative="1" as="geometry" />
        </mxCell>
        <mxCell id="W7lvZCYJEOEOD-ry5RO5-1" value="" style="verticalLabelPosition=bottom;verticalAlign=top;html=1;shape=mxgraph.basic.acute_triangle;dx=0.5;" parent="1" vertex="1">
          <mxGeometry x="380" y="320" width="100" height="70" as="geometry" />
        </mxCell>
        <mxCell id="W7lvZCYJEOEOD-ry5RO5-37" style="edgeStyle=orthogonalEdgeStyle;curved=1;rounded=0;orthogonalLoop=1;jettySize=auto;html=1;exitX=0.5;exitY=1;exitDx=0;exitDy=0;entryX=0;entryY=0;entryDx=50;entryDy=0;entryPerimeter=0;" parent="1" source="W7lvZCYJEOEOD-ry5RO5-2" target="W7lvZCYJEOEOD-ry5RO5-1" edge="1">
          <mxGeometry relative="1" as="geometry">
            <mxPoint x="430.0909090909091" y="300.58176491477275" as="targetPoint" />
          </mxGeometry>
        </mxCell>
        <mxCell id="W7lvZCYJEOEOD-ry5RO5-2" value="&lt;b&gt;Node &amp;lt;T&amp;gt;&lt;/b&gt;" style="swimlane;fontStyle=0;childLayout=stackLayout;horizontal=1;startSize=30;horizontalStack=0;resizeParent=1;resizeParentMax=0;resizeLast=0;collapsible=1;marginBottom=0;whiteSpace=wrap;html=1;" parent="1" vertex="1">
          <mxGeometry x="315" y="-30" width="230" height="300" as="geometry" />
        </mxCell>
        <mxCell id="W7lvZCYJEOEOD-ry5RO5-3" value="T data" style="text;strokeColor=none;fillColor=none;align=left;verticalAlign=middle;spacingLeft=4;spacingRight=4;overflow=hidden;points=[[0,0.5],[1,0.5]];portConstraint=eastwest;rotatable=0;whiteSpace=wrap;html=1;" parent="W7lvZCYJEOEOD-ry5RO5-2" vertex="1">
          <mxGeometry y="30" width="230" height="30" as="geometry" />
        </mxCell>
        <mxCell id="W7lvZCYJEOEOD-ry5RO5-4" value="Node(T data)" style="text;strokeColor=none;fillColor=none;align=left;verticalAlign=middle;spacingLeft=4;spacingRight=4;overflow=hidden;points=[[0,0.5],[1,0.5]];portConstraint=eastwest;rotatable=0;whiteSpace=wrap;html=1;" parent="W7lvZCYJEOEOD-ry5RO5-2" vertex="1">
          <mxGeometry y="60" width="230" height="30" as="geometry" />
        </mxCell>
        <mxCell id="W7lvZCYJEOEOD-ry5RO5-5" value="T get_data()" style="text;strokeColor=none;fillColor=none;align=left;verticalAlign=middle;spacingLeft=4;spacingRight=4;overflow=hidden;points=[[0,0.5],[1,0.5]];portConstraint=eastwest;rotatable=0;whiteSpace=wrap;html=1;" parent="W7lvZCYJEOEOD-ry5RO5-2" vertex="1">
          <mxGeometry y="90" width="230" height="30" as="geometry" />
        </mxCell>
        <mxCell id="W7lvZCYJEOEOD-ry5RO5-6" value="void set_data(T data)" style="text;strokeColor=none;fillColor=none;align=left;verticalAlign=middle;spacingLeft=4;spacingRight=4;overflow=hidden;points=[[0,0.5],[1,0.5]];portConstraint=eastwest;rotatable=0;whiteSpace=wrap;html=1;" parent="W7lvZCYJEOEOD-ry5RO5-2" vertex="1">
          <mxGeometry y="120" width="230" height="30" as="geometry" />
        </mxCell>
        <mxCell id="XOJ0l7ylJO0rZJ5QZdvN-1" value="static &amp;lt;T&amp;gt; boolean equals_safe(T a, T b)" style="text;strokeColor=none;fillColor=none;align=left;verticalAlign=middle;spacingLeft=4;spacingRight=4;overflow=hidden;points=[[0,0.5],[1,0.5]];portConstraint=eastwest;rotatable=0;whiteSpace=wrap;html=1;" parent="W7lvZCYJEOEOD-ry5RO5-2" vertex="1">
          <mxGeometry y="150" width="230" height="30" as="geometry" />
        </mxCell>
        <mxCell id="W7lvZCYJEOEOD-ry5RO5-13" value="abstract Node&amp;lt;T&amp;gt; get_next()" style="text;strokeColor=none;fillColor=none;align=left;verticalAlign=middle;spacingLeft=4;spacingRight=4;overflow=hidden;points=[[0,0.5],[1,0.5]];portConstraint=eastwest;rotatable=0;whiteSpace=wrap;html=1;" parent="W7lvZCYJEOEOD-ry5RO5-2" vertex="1">
          <mxGeometry y="180" width="230" height="30" as="geometry" />
        </mxCell>
        <mxCell id="W7lvZCYJEOEOD-ry5RO5-7" value="abstract void set_next(Node&amp;lt;T&amp;gt; next)" style="text;strokeColor=none;fillColor=none;align=left;verticalAlign=middle;spacingLeft=4;spacingRight=4;overflow=hidden;points=[[0,0.5],[1,0.5]];portConstraint=eastwest;rotatable=0;whiteSpace=wrap;html=1;" parent="W7lvZCYJEOEOD-ry5RO5-2" vertex="1">
          <mxGeometry y="210" width="230" height="30" as="geometry" />
        </mxCell>
        <mxCell id="W7lvZCYJEOEOD-ry5RO5-8" value="Node&amp;lt;T&amp;gt; get_prev()" style="text;strokeColor=none;fillColor=none;align=left;verticalAlign=middle;spacingLeft=4;spacingRight=4;overflow=hidden;points=[[0,0.5],[1,0.5]];portConstraint=eastwest;rotatable=0;whiteSpace=wrap;html=1;" parent="W7lvZCYJEOEOD-ry5RO5-2" vertex="1">
          <mxGeometry y="240" width="230" height="30" as="geometry" />
        </mxCell>
        <mxCell id="W7lvZCYJEOEOD-ry5RO5-9" value="set_prev(Node&amp;lt;T&amp;gt; prev)" style="text;strokeColor=none;fillColor=none;align=left;verticalAlign=middle;spacingLeft=4;spacingRight=4;overflow=hidden;points=[[0,0.5],[1,0.5]];portConstraint=eastwest;rotatable=0;whiteSpace=wrap;html=1;" parent="W7lvZCYJEOEOD-ry5RO5-2" vertex="1">
          <mxGeometry y="270" width="230" height="30" as="geometry" />
        </mxCell>
        <mxCell id="W7lvZCYJEOEOD-ry5RO5-14" value="&lt;b&gt;Singly_Node &amp;lt;T&amp;gt;&lt;/b&gt;" style="swimlane;fontStyle=0;childLayout=stackLayout;horizontal=1;startSize=30;horizontalStack=0;resizeParent=1;resizeParentMax=0;resizeLast=0;collapsible=1;marginBottom=0;whiteSpace=wrap;html=1;" parent="1" vertex="1">
          <mxGeometry x="190" y="430" width="170" height="150" as="geometry" />
        </mxCell>
        <mxCell id="W7lvZCYJEOEOD-ry5RO5-38" value="Node&amp;lt;T&amp;gt; next" style="text;strokeColor=none;fillColor=none;align=left;verticalAlign=middle;spacingLeft=4;spacingRight=4;overflow=hidden;points=[[0,0.5],[1,0.5]];portConstraint=eastwest;rotatable=0;whiteSpace=wrap;html=1;" parent="W7lvZCYJEOEOD-ry5RO5-14" vertex="1">
          <mxGeometry y="30" width="170" height="30" as="geometry" />
        </mxCell>
        <mxCell id="W7lvZCYJEOEOD-ry5RO5-20" value="Singly_Node(T data)" style="text;strokeColor=none;fillColor=none;align=left;verticalAlign=middle;spacingLeft=4;spacingRight=4;overflow=hidden;points=[[0,0.5],[1,0.5]];portConstraint=eastwest;rotatable=0;whiteSpace=wrap;html=1;" parent="W7lvZCYJEOEOD-ry5RO5-14" vertex="1">
          <mxGeometry y="60" width="170" height="30" as="geometry" />
        </mxCell>
        <mxCell id="W7lvZCYJEOEOD-ry5RO5-21" value="Node&amp;lt;T&amp;gt; get_next()" style="text;strokeColor=none;fillColor=none;align=left;verticalAlign=middle;spacingLeft=4;spacingRight=4;overflow=hidden;points=[[0,0.5],[1,0.5]];portConstraint=eastwest;rotatable=0;whiteSpace=wrap;html=1;" parent="W7lvZCYJEOEOD-ry5RO5-14" vertex="1">
          <mxGeometry y="90" width="170" height="30" as="geometry" />
        </mxCell>
        <mxCell id="rCAh8RcdCCvZKbfKKGVB-1" value="void set_next(Node&amp;lt;T&amp;gt; next)" style="text;strokeColor=none;fillColor=none;align=left;verticalAlign=middle;spacingLeft=4;spacingRight=4;overflow=hidden;points=[[0,0.5],[1,0.5]];portConstraint=eastwest;rotatable=0;whiteSpace=wrap;html=1;" parent="W7lvZCYJEOEOD-ry5RO5-14" vertex="1">
          <mxGeometry y="120" width="170" height="30" as="geometry" />
        </mxCell>
        <mxCell id="W7lvZCYJEOEOD-ry5RO5-29" value="&lt;b&gt;Doubly_Node &amp;lt;T&amp;gt;&lt;/b&gt;" style="swimlane;fontStyle=0;childLayout=stackLayout;horizontal=1;startSize=30;horizontalStack=0;resizeParent=1;resizeParentMax=0;resizeLast=0;collapsible=1;marginBottom=0;whiteSpace=wrap;html=1;" parent="1" vertex="1">
          <mxGeometry x="530" y="430" width="170" height="240" as="geometry" />
        </mxCell>
        <mxCell id="W7lvZCYJEOEOD-ry5RO5-39" value="Node&amp;lt;T&amp;gt; next" style="text;strokeColor=none;fillColor=none;align=left;verticalAlign=middle;spacingLeft=4;spacingRight=4;overflow=hidden;points=[[0,0.5],[1,0.5]];portConstraint=eastwest;rotatable=0;whiteSpace=wrap;html=1;" parent="W7lvZCYJEOEOD-ry5RO5-29" vertex="1">
          <mxGeometry y="30" width="170" height="30" as="geometry" />
        </mxCell>
        <mxCell id="W7lvZCYJEOEOD-ry5RO5-30" value="Node&amp;lt;T&amp;gt; prev" style="text;strokeColor=none;fillColor=none;align=left;verticalAlign=middle;spacingLeft=4;spacingRight=4;overflow=hidden;points=[[0,0.5],[1,0.5]];portConstraint=eastwest;rotatable=0;whiteSpace=wrap;html=1;" parent="W7lvZCYJEOEOD-ry5RO5-29" vertex="1">
          <mxGeometry y="60" width="170" height="30" as="geometry" />
        </mxCell>
        <mxCell id="W7lvZCYJEOEOD-ry5RO5-31" value="Doubly_Node(T data)" style="text;strokeColor=none;fillColor=none;align=left;verticalAlign=middle;spacingLeft=4;spacingRight=4;overflow=hidden;points=[[0,0.5],[1,0.5]];portConstraint=eastwest;rotatable=0;whiteSpace=wrap;html=1;" parent="W7lvZCYJEOEOD-ry5RO5-29" vertex="1">
          <mxGeometry y="90" width="170" height="30" as="geometry" />
        </mxCell>
        <mxCell id="rCAh8RcdCCvZKbfKKGVB-2" value="Node&amp;lt;T&amp;gt; get_next()" style="text;strokeColor=none;fillColor=none;align=left;verticalAlign=middle;spacingLeft=4;spacingRight=4;overflow=hidden;points=[[0,0.5],[1,0.5]];portConstraint=eastwest;rotatable=0;whiteSpace=wrap;html=1;" parent="W7lvZCYJEOEOD-ry5RO5-29" vertex="1">
          <mxGeometry y="120" width="170" height="30" as="geometry" />
        </mxCell>
        <mxCell id="rCAh8RcdCCvZKbfKKGVB-3" value="void set_next(Node&amp;lt;T&amp;gt; next)" style="text;strokeColor=none;fillColor=none;align=left;verticalAlign=middle;spacingLeft=4;spacingRight=4;overflow=hidden;points=[[0,0.5],[1,0.5]];portConstraint=eastwest;rotatable=0;whiteSpace=wrap;html=1;" parent="W7lvZCYJEOEOD-ry5RO5-29" vertex="1">
          <mxGeometry y="150" width="170" height="30" as="geometry" />
        </mxCell>
        <mxCell id="rCAh8RcdCCvZKbfKKGVB-4" value="Node&amp;lt;T&amp;gt; get_prev()" style="text;strokeColor=none;fillColor=none;align=left;verticalAlign=middle;spacingLeft=4;spacingRight=4;overflow=hidden;points=[[0,0.5],[1,0.5]];portConstraint=eastwest;rotatable=0;whiteSpace=wrap;html=1;" parent="W7lvZCYJEOEOD-ry5RO5-29" vertex="1">
          <mxGeometry y="180" width="170" height="30" as="geometry" />
        </mxCell>
        <mxCell id="rCAh8RcdCCvZKbfKKGVB-5" value="void set_prev(Node&amp;lt;T&amp;gt; prev)" style="text;strokeColor=none;fillColor=none;align=left;verticalAlign=middle;spacingLeft=4;spacingRight=4;overflow=hidden;points=[[0,0.5],[1,0.5]];portConstraint=eastwest;rotatable=0;whiteSpace=wrap;html=1;" parent="W7lvZCYJEOEOD-ry5RO5-29" vertex="1">
          <mxGeometry y="210" width="170" height="30" as="geometry" />
        </mxCell>
        <mxCell id="rCAh8RcdCCvZKbfKKGVB-6" value="" style="strokeWidth=2;html=1;shape=mxgraph.flowchart.annotation_2;align=left;labelPosition=right;pointerEvents=1;rotation=-180;" parent="1" vertex="1">
          <mxGeometry x="550" y="210" width="30" height="60" as="geometry" />
        </mxCell>
        <mxCell id="rCAh8RcdCCvZKbfKKGVB-7" value="Default to empty&amp;nbsp;&lt;div&gt;implementations&lt;/div&gt;&lt;div&gt;(reserved for doubly)&lt;/div&gt;" style="text;html=1;align=center;verticalAlign=middle;resizable=0;points=[];autosize=1;strokeColor=none;fillColor=none;" parent="1" vertex="1">
          <mxGeometry x="570" y="210" width="130" height="60" as="geometry" />
        </mxCell>
      </root>
    </mxGraphModel>
  </diagram>
  <diagram id="svjCmargY9UBYdr8JAG2" name="Lists">
    <mxGraphModel dx="1507" dy="776" grid="1" gridSize="10" guides="1" tooltips="1" connect="1" arrows="1" fold="1" page="1" pageScale="1" pageWidth="850" pageHeight="1100" math="0" shadow="0">
      <root>
        <mxCell id="0" />
        <mxCell id="1" parent="0" />
        <mxCell id="-yFaOj8RABbSVR2hjj-D-1" style="rounded=0;orthogonalLoop=1;jettySize=auto;html=1;exitX=0;exitY=1;exitDx=0;exitDy=0;exitPerimeter=0;entryX=0.5;entryY=0;entryDx=0;entryDy=0;" parent="1" source="-yFaOj8RABbSVR2hjj-D-3" target="-yFaOj8RABbSVR2hjj-D-17" edge="1">
          <mxGeometry relative="1" as="geometry" />
        </mxCell>
        <mxCell id="AUXq2k6LpbSirSV-59TV-14" style="rounded=0;orthogonalLoop=1;jettySize=auto;html=1;exitX=1;exitY=1;exitDx=0;exitDy=0;exitPerimeter=0;entryX=0.5;entryY=0;entryDx=0;entryDy=0;" parent="1" source="-yFaOj8RABbSVR2hjj-D-3" target="AUXq2k6LpbSirSV-59TV-10" edge="1">
          <mxGeometry relative="1" as="geometry" />
        </mxCell>
        <mxCell id="AUXq2k6LpbSirSV-59TV-15" style="edgeStyle=orthogonalEdgeStyle;rounded=0;orthogonalLoop=1;jettySize=auto;html=1;exitX=0.5;exitY=1;exitDx=0;exitDy=0;exitPerimeter=0;entryX=0.5;entryY=0;entryDx=0;entryDy=0;" parent="1" source="-yFaOj8RABbSVR2hjj-D-3" target="AUXq2k6LpbSirSV-59TV-6" edge="1">
          <mxGeometry relative="1" as="geometry" />
        </mxCell>
        <mxCell id="-yFaOj8RABbSVR2hjj-D-3" value="" style="verticalLabelPosition=bottom;verticalAlign=top;html=1;shape=mxgraph.basic.acute_triangle;dx=0.5;" parent="1" vertex="1">
          <mxGeometry x="420" y="640" width="100" height="70" as="geometry" />
        </mxCell>
        <mxCell id="-yFaOj8RABbSVR2hjj-D-4" style="edgeStyle=orthogonalEdgeStyle;curved=1;rounded=0;orthogonalLoop=1;jettySize=auto;html=1;exitX=0.5;exitY=1;exitDx=0;exitDy=0;entryX=0;entryY=0;entryDx=50;entryDy=0;entryPerimeter=0;" parent="1" source="-yFaOj8RABbSVR2hjj-D-5" target="-yFaOj8RABbSVR2hjj-D-3" edge="1">
          <mxGeometry relative="1" as="geometry">
            <mxPoint x="470.0909090909091" y="620.5817649147727" as="targetPoint" />
          </mxGeometry>
        </mxCell>
        <mxCell id="-yFaOj8RABbSVR2hjj-D-5" value="&lt;b&gt;Linked_List &amp;lt;T&amp;gt;&lt;/b&gt;" style="swimlane;fontStyle=0;childLayout=stackLayout;horizontal=1;startSize=30;horizontalStack=0;resizeParent=1;resizeParentMax=0;resizeLast=0;collapsible=1;marginBottom=0;whiteSpace=wrap;html=1;" parent="1" vertex="1">
          <mxGeometry x="355" y="210" width="230" height="390" as="geometry" />
        </mxCell>
        <mxCell id="-yFaOj8RABbSVR2hjj-D-6" value="Node&amp;lt;T&amp;gt; head" style="text;strokeColor=none;fillColor=none;align=left;verticalAlign=middle;spacingLeft=4;spacingRight=4;overflow=hidden;points=[[0,0.5],[1,0.5]];portConstraint=eastwest;rotatable=0;whiteSpace=wrap;html=1;" parent="-yFaOj8RABbSVR2hjj-D-5" vertex="1">
          <mxGeometry y="30" width="230" height="30" as="geometry" />
        </mxCell>
        <mxCell id="-yFaOj8RABbSVR2hjj-D-7" value="Node&amp;lt;T&amp;gt; tail" style="text;strokeColor=none;fillColor=none;align=left;verticalAlign=middle;spacingLeft=4;spacingRight=4;overflow=hidden;points=[[0,0.5],[1,0.5]];portConstraint=eastwest;rotatable=0;whiteSpace=wrap;html=1;" parent="-yFaOj8RABbSVR2hjj-D-5" vertex="1">
          <mxGeometry y="60" width="230" height="30" as="geometry" />
        </mxCell>
        <mxCell id="5-TuJDMk3q1UL2dJBgEa-1" value="int size" style="text;strokeColor=none;fillColor=none;align=left;verticalAlign=middle;spacingLeft=4;spacingRight=4;overflow=hidden;points=[[0,0.5],[1,0.5]];portConstraint=eastwest;rotatable=0;whiteSpace=wrap;html=1;" parent="-yFaOj8RABbSVR2hjj-D-5" vertex="1">
          <mxGeometry y="90" width="230" height="30" as="geometry" />
        </mxCell>
        <mxCell id="-yFaOj8RABbSVR2hjj-D-10" value="Linked_List()" style="text;strokeColor=none;fillColor=none;align=left;verticalAlign=middle;spacingLeft=4;spacingRight=4;overflow=hidden;points=[[0,0.5],[1,0.5]];portConstraint=eastwest;rotatable=0;whiteSpace=wrap;html=1;" parent="-yFaOj8RABbSVR2hjj-D-5" vertex="1">
          <mxGeometry y="120" width="230" height="30" as="geometry" />
        </mxCell>
        <mxCell id="-yFaOj8RABbSVR2hjj-D-11" value="abstract void add(T data)" style="text;strokeColor=none;fillColor=none;align=left;verticalAlign=middle;spacingLeft=4;spacingRight=4;overflow=hidden;points=[[0,0.5],[1,0.5]];portConstraint=eastwest;rotatable=0;whiteSpace=wrap;html=1;" parent="-yFaOj8RABbSVR2hjj-D-5" vertex="1">
          <mxGeometry y="150" width="230" height="30" as="geometry" />
        </mxCell>
        <mxCell id="-yFaOj8RABbSVR2hjj-D-14" value="abstract boolean remove(T data)" style="text;strokeColor=none;fillColor=none;align=left;verticalAlign=middle;spacingLeft=4;spacingRight=4;overflow=hidden;points=[[0,0.5],[1,0.5]];portConstraint=eastwest;rotatable=0;whiteSpace=wrap;html=1;" parent="-yFaOj8RABbSVR2hjj-D-5" vertex="1">
          <mxGeometry y="180" width="230" height="30" as="geometry" />
        </mxCell>
        <mxCell id="-yFaOj8RABbSVR2hjj-D-15" value="abstract Node&amp;lt;T&amp;gt; find(T data)" style="text;strokeColor=none;fillColor=none;align=left;verticalAlign=middle;spacingLeft=4;spacingRight=4;overflow=hidden;points=[[0,0.5],[1,0.5]];portConstraint=eastwest;rotatable=0;whiteSpace=wrap;html=1;" parent="-yFaOj8RABbSVR2hjj-D-5" vertex="1">
          <mxGeometry y="210" width="230" height="30" as="geometry" />
        </mxCell>
        <mxCell id="AUXq2k6LpbSirSV-59TV-1" value="int get_size()" style="text;strokeColor=none;fillColor=none;align=left;verticalAlign=middle;spacingLeft=4;spacingRight=4;overflow=hidden;points=[[0,0.5],[1,0.5]];portConstraint=eastwest;rotatable=0;whiteSpace=wrap;html=1;" parent="-yFaOj8RABbSVR2hjj-D-5" vertex="1">
          <mxGeometry y="240" width="230" height="30" as="geometry" />
        </mxCell>
        <mxCell id="AUXq2k6LpbSirSV-59TV-2" value="boolean is_empty()" style="text;strokeColor=none;fillColor=none;align=left;verticalAlign=middle;spacingLeft=4;spacingRight=4;overflow=hidden;points=[[0,0.5],[1,0.5]];portConstraint=eastwest;rotatable=0;whiteSpace=wrap;html=1;" parent="-yFaOj8RABbSVR2hjj-D-5" vertex="1">
          <mxGeometry y="270" width="230" height="30" as="geometry" />
        </mxCell>
        <mxCell id="AUXq2k6LpbSirSV-59TV-3" value="void for_each(Visitor&amp;lt;T&amp;gt; visitor)" style="text;strokeColor=none;fillColor=none;align=left;verticalAlign=middle;spacingLeft=4;spacingRight=4;overflow=hidden;points=[[0,0.5],[1,0.5]];portConstraint=eastwest;rotatable=0;whiteSpace=wrap;html=1;" parent="-yFaOj8RABbSVR2hjj-D-5" vertex="1">
          <mxGeometry y="300" width="230" height="30" as="geometry" />
        </mxCell>
        <mxCell id="AUXq2k6LpbSirSV-59TV-4" value="Node&amp;lt;T&amp;gt; get_head()" style="text;strokeColor=none;fillColor=none;align=left;verticalAlign=middle;spacingLeft=4;spacingRight=4;overflow=hidden;points=[[0,0.5],[1,0.5]];portConstraint=eastwest;rotatable=0;whiteSpace=wrap;html=1;" parent="-yFaOj8RABbSVR2hjj-D-5" vertex="1">
          <mxGeometry y="330" width="230" height="30" as="geometry" />
        </mxCell>
        <mxCell id="AUXq2k6LpbSirSV-59TV-5" value="interface Visitor&amp;lt;T&amp;gt;" style="text;strokeColor=none;fillColor=none;align=left;verticalAlign=middle;spacingLeft=4;spacingRight=4;overflow=hidden;points=[[0,0.5],[1,0.5]];portConstraint=eastwest;rotatable=0;whiteSpace=wrap;html=1;" parent="-yFaOj8RABbSVR2hjj-D-5" vertex="1">
          <mxGeometry y="360" width="230" height="30" as="geometry" />
        </mxCell>
        <mxCell id="-yFaOj8RABbSVR2hjj-D-17" value="&lt;b&gt;Singly_Linked_List &amp;lt;T&amp;gt;&lt;/b&gt;" style="swimlane;fontStyle=0;childLayout=stackLayout;horizontal=1;startSize=30;horizontalStack=0;resizeParent=1;resizeParentMax=0;resizeLast=0;collapsible=1;marginBottom=0;whiteSpace=wrap;html=1;" parent="1" vertex="1">
          <mxGeometry x="190" y="760" width="180" height="150" as="geometry" />
        </mxCell>
        <mxCell id="-yFaOj8RABbSVR2hjj-D-18" value="Singly_Linked_List()" style="text;strokeColor=none;fillColor=none;align=left;verticalAlign=middle;spacingLeft=4;spacingRight=4;overflow=hidden;points=[[0,0.5],[1,0.5]];portConstraint=eastwest;rotatable=0;whiteSpace=wrap;html=1;" parent="-yFaOj8RABbSVR2hjj-D-17" vertex="1">
          <mxGeometry y="30" width="180" height="30" as="geometry" />
        </mxCell>
        <mxCell id="AUXq2k6LpbSirSV-59TV-16" value="void add(T data)" style="text;strokeColor=none;fillColor=none;align=left;verticalAlign=middle;spacingLeft=4;spacingRight=4;overflow=hidden;points=[[0,0.5],[1,0.5]];portConstraint=eastwest;rotatable=0;whiteSpace=wrap;html=1;" parent="-yFaOj8RABbSVR2hjj-D-17" vertex="1">
          <mxGeometry y="60" width="180" height="30" as="geometry" />
        </mxCell>
        <mxCell id="-yFaOj8RABbSVR2hjj-D-19" value="boolean remove(T data)" style="text;strokeColor=none;fillColor=none;align=left;verticalAlign=middle;spacingLeft=4;spacingRight=4;overflow=hidden;points=[[0,0.5],[1,0.5]];portConstraint=eastwest;rotatable=0;whiteSpace=wrap;html=1;" parent="-yFaOj8RABbSVR2hjj-D-17" vertex="1">
          <mxGeometry y="90" width="180" height="30" as="geometry" />
        </mxCell>
        <mxCell id="-yFaOj8RABbSVR2hjj-D-20" value="Node&amp;lt;T&amp;gt; find(T data)" style="text;strokeColor=none;fillColor=none;align=left;verticalAlign=middle;spacingLeft=4;spacingRight=4;overflow=hidden;points=[[0,0.5],[1,0.5]];portConstraint=eastwest;rotatable=0;whiteSpace=wrap;html=1;" parent="-yFaOj8RABbSVR2hjj-D-17" vertex="1">
          <mxGeometry y="120" width="180" height="30" as="geometry" />
        </mxCell>
        <mxCell id="AUXq2k6LpbSirSV-59TV-6" value="&lt;b&gt;Doubly_Linked_List &amp;lt;T&amp;gt;&lt;/b&gt;" style="swimlane;fontStyle=0;childLayout=stackLayout;horizontal=1;startSize=30;horizontalStack=0;resizeParent=1;resizeParentMax=0;resizeLast=0;collapsible=1;marginBottom=0;whiteSpace=wrap;html=1;" parent="1" vertex="1">
          <mxGeometry x="380" y="900" width="180" height="150" as="geometry" />
        </mxCell>
        <mxCell id="AUXq2k6LpbSirSV-59TV-17" value="Doubly_Linked_List()" style="text;strokeColor=none;fillColor=none;align=left;verticalAlign=middle;spacingLeft=4;spacingRight=4;overflow=hidden;points=[[0,0.5],[1,0.5]];portConstraint=eastwest;rotatable=0;whiteSpace=wrap;html=1;" parent="AUXq2k6LpbSirSV-59TV-6" vertex="1">
          <mxGeometry y="30" width="180" height="30" as="geometry" />
        </mxCell>
        <mxCell id="AUXq2k6LpbSirSV-59TV-7" value="void add(T data)" style="text;strokeColor=none;fillColor=none;align=left;verticalAlign=middle;spacingLeft=4;spacingRight=4;overflow=hidden;points=[[0,0.5],[1,0.5]];portConstraint=eastwest;rotatable=0;whiteSpace=wrap;html=1;" parent="AUXq2k6LpbSirSV-59TV-6" vertex="1">
          <mxGeometry y="60" width="180" height="30" as="geometry" />
        </mxCell>
        <mxCell id="AUXq2k6LpbSirSV-59TV-8" value="boolean remove(T data)" style="text;strokeColor=none;fillColor=none;align=left;verticalAlign=middle;spacingLeft=4;spacingRight=4;overflow=hidden;points=[[0,0.5],[1,0.5]];portConstraint=eastwest;rotatable=0;whiteSpace=wrap;html=1;" parent="AUXq2k6LpbSirSV-59TV-6" vertex="1">
          <mxGeometry y="90" width="180" height="30" as="geometry" />
        </mxCell>
        <mxCell id="AUXq2k6LpbSirSV-59TV-9" value="Node&amp;lt;T&amp;gt; find(T data)" style="text;strokeColor=none;fillColor=none;align=left;verticalAlign=middle;spacingLeft=4;spacingRight=4;overflow=hidden;points=[[0,0.5],[1,0.5]];portConstraint=eastwest;rotatable=0;whiteSpace=wrap;html=1;" parent="AUXq2k6LpbSirSV-59TV-6" vertex="1">
          <mxGeometry y="120" width="180" height="30" as="geometry" />
        </mxCell>
        <mxCell id="AUXq2k6LpbSirSV-59TV-10" value="&lt;b&gt;Circular_Linked_List &amp;lt;T&amp;gt;&lt;/b&gt;" style="swimlane;fontStyle=0;childLayout=stackLayout;horizontal=1;startSize=30;horizontalStack=0;resizeParent=1;resizeParentMax=0;resizeLast=0;collapsible=1;marginBottom=0;whiteSpace=wrap;html=1;" parent="1" vertex="1">
          <mxGeometry x="570" y="760" width="180" height="150" as="geometry" />
        </mxCell>
        <mxCell id="AUXq2k6LpbSirSV-59TV-11" value="Circular_Linked_List()" style="text;strokeColor=none;fillColor=none;align=left;verticalAlign=middle;spacingLeft=4;spacingRight=4;overflow=hidden;points=[[0,0.5],[1,0.5]];portConstraint=eastwest;rotatable=0;whiteSpace=wrap;html=1;" parent="AUXq2k6LpbSirSV-59TV-10" vertex="1">
          <mxGeometry y="30" width="180" height="30" as="geometry" />
        </mxCell>
        <mxCell id="AUXq2k6LpbSirSV-59TV-18" value="void add(T data)" style="text;strokeColor=none;fillColor=none;align=left;verticalAlign=middle;spacingLeft=4;spacingRight=4;overflow=hidden;points=[[0,0.5],[1,0.5]];portConstraint=eastwest;rotatable=0;whiteSpace=wrap;html=1;" parent="AUXq2k6LpbSirSV-59TV-10" vertex="1">
          <mxGeometry y="60" width="180" height="30" as="geometry" />
        </mxCell>
        <mxCell id="AUXq2k6LpbSirSV-59TV-12" value="boolean remove(T data)" style="text;strokeColor=none;fillColor=none;align=left;verticalAlign=middle;spacingLeft=4;spacingRight=4;overflow=hidden;points=[[0,0.5],[1,0.5]];portConstraint=eastwest;rotatable=0;whiteSpace=wrap;html=1;" parent="AUXq2k6LpbSirSV-59TV-10" vertex="1">
          <mxGeometry y="90" width="180" height="30" as="geometry" />
        </mxCell>
        <mxCell id="AUXq2k6LpbSirSV-59TV-13" value="Node&amp;lt;T&amp;gt; find(T data)" style="text;strokeColor=none;fillColor=none;align=left;verticalAlign=middle;spacingLeft=4;spacingRight=4;overflow=hidden;points=[[0,0.5],[1,0.5]];portConstraint=eastwest;rotatable=0;whiteSpace=wrap;html=1;" parent="AUXq2k6LpbSirSV-59TV-10" vertex="1">
          <mxGeometry y="120" width="180" height="30" as="geometry" />
        </mxCell>
      </root>
    </mxGraphModel>
  </diagram>
  <diagram id="HJwSyz1Thx0kYTsfkNiV" name="Types">
    <mxGraphModel dx="2135" dy="1100" grid="1" gridSize="10" guides="1" tooltips="1" connect="1" arrows="1" fold="1" page="1" pageScale="1" pageWidth="850" pageHeight="1100" math="0" shadow="0">
      <root>
        <mxCell id="0" />
        <mxCell id="1" parent="0" />
        <mxCell id="MrTeLE-fRb-JpKuM4ANt-5" value="&lt;b&gt;FF7_Types&lt;/b&gt;" style="swimlane;fontStyle=0;childLayout=stackLayout;horizontal=1;startSize=30;horizontalStack=0;resizeParent=1;resizeParentMax=0;resizeLast=0;collapsible=1;marginBottom=0;whiteSpace=wrap;html=1;" parent="1" vertex="1">
          <mxGeometry x="330" y="430" width="190" height="90" as="geometry" />
        </mxCell>
        <mxCell id="MrTeLE-fRb-JpKuM4ANt-11" value="static class Character" style="text;strokeColor=none;fillColor=none;align=left;verticalAlign=middle;spacingLeft=4;spacingRight=4;overflow=hidden;points=[[0,0.5],[1,0.5]];portConstraint=eastwest;rotatable=0;whiteSpace=wrap;html=1;" parent="MrTeLE-fRb-JpKuM4ANt-5" vertex="1">
          <mxGeometry y="30" width="190" height="30" as="geometry" />
        </mxCell>
        <mxCell id="ndUTzzxAapbC7wvVWWkG-1" value="static class Materia" style="text;strokeColor=none;fillColor=none;align=left;verticalAlign=middle;spacingLeft=4;spacingRight=4;overflow=hidden;points=[[0,0.5],[1,0.5]];portConstraint=eastwest;rotatable=0;whiteSpace=wrap;html=1;" vertex="1" parent="MrTeLE-fRb-JpKuM4ANt-5">
          <mxGeometry y="60" width="190" height="30" as="geometry" />
        </mxCell>
        <mxCell id="MrTeLE-fRb-JpKuM4ANt-12" value="&lt;b&gt;Character&lt;/b&gt;" style="swimlane;fontStyle=0;childLayout=stackLayout;horizontal=1;startSize=30;horizontalStack=0;resizeParent=1;resizeParentMax=0;resizeLast=0;collapsible=1;marginBottom=0;whiteSpace=wrap;html=1;" parent="1" vertex="1">
          <mxGeometry x="560" y="505" width="220" height="210" as="geometry" />
        </mxCell>
        <mxCell id="MrTeLE-fRb-JpKuM4ANt-13" value="String name" style="text;strokeColor=none;fillColor=none;align=left;verticalAlign=middle;spacingLeft=4;spacingRight=4;overflow=hidden;points=[[0,0.5],[1,0.5]];portConstraint=eastwest;rotatable=0;whiteSpace=wrap;html=1;" parent="MrTeLE-fRb-JpKuM4ANt-12" vertex="1">
          <mxGeometry y="30" width="220" height="30" as="geometry" />
        </mxCell>
        <mxCell id="MrTeLE-fRb-JpKuM4ANt-14" value="int hp" style="text;strokeColor=none;fillColor=none;align=left;verticalAlign=middle;spacingLeft=4;spacingRight=4;overflow=hidden;points=[[0,0.5],[1,0.5]];portConstraint=eastwest;rotatable=0;whiteSpace=wrap;html=1;" parent="MrTeLE-fRb-JpKuM4ANt-12" vertex="1">
          <mxGeometry y="60" width="220" height="30" as="geometry" />
        </mxCell>
        <mxCell id="ndUTzzxAapbC7wvVWWkG-2" value="int level" style="text;strokeColor=none;fillColor=none;align=left;verticalAlign=middle;spacingLeft=4;spacingRight=4;overflow=hidden;points=[[0,0.5],[1,0.5]];portConstraint=eastwest;rotatable=0;whiteSpace=wrap;html=1;" vertex="1" parent="MrTeLE-fRb-JpKuM4ANt-12">
          <mxGeometry y="90" width="220" height="30" as="geometry" />
        </mxCell>
        <mxCell id="ndUTzzxAapbC7wvVWWkG-8" value="Character(String name, int hp, int level)" style="text;strokeColor=none;fillColor=none;align=left;verticalAlign=middle;spacingLeft=4;spacingRight=4;overflow=hidden;points=[[0,0.5],[1,0.5]];portConstraint=eastwest;rotatable=0;whiteSpace=wrap;html=1;" vertex="1" parent="MrTeLE-fRb-JpKuM4ANt-12">
          <mxGeometry y="120" width="220" height="30" as="geometry" />
        </mxCell>
        <mxCell id="ndUTzzxAapbC7wvVWWkG-6" value="String toString()" style="text;strokeColor=none;fillColor=none;align=left;verticalAlign=middle;spacingLeft=4;spacingRight=4;overflow=hidden;points=[[0,0.5],[1,0.5]];portConstraint=eastwest;rotatable=0;whiteSpace=wrap;html=1;" vertex="1" parent="MrTeLE-fRb-JpKuM4ANt-12">
          <mxGeometry y="150" width="220" height="30" as="geometry" />
        </mxCell>
        <mxCell id="ndUTzzxAapbC7wvVWWkG-7" value="boolean equals(Object o)" style="text;strokeColor=none;fillColor=none;align=left;verticalAlign=middle;spacingLeft=4;spacingRight=4;overflow=hidden;points=[[0,0.5],[1,0.5]];portConstraint=eastwest;rotatable=0;whiteSpace=wrap;html=1;" vertex="1" parent="MrTeLE-fRb-JpKuM4ANt-12">
          <mxGeometry y="180" width="220" height="30" as="geometry" />
        </mxCell>
        <mxCell id="ndUTzzxAapbC7wvVWWkG-13" style="edgeStyle=orthogonalEdgeStyle;rounded=0;orthogonalLoop=1;jettySize=auto;html=1;exitX=1;exitY=0.75;exitDx=0;exitDy=0;entryX=0.5;entryY=0;entryDx=0;entryDy=0;" edge="1" parent="1" source="MrTeLE-fRb-JpKuM4ANt-16" target="ndUTzzxAapbC7wvVWWkG-12">
          <mxGeometry relative="1" as="geometry" />
        </mxCell>
        <mxCell id="MrTeLE-fRb-JpKuM4ANt-16" value="&lt;b&gt;Materia&lt;/b&gt;" style="swimlane;fontStyle=0;childLayout=stackLayout;horizontal=1;startSize=30;horizontalStack=0;resizeParent=1;resizeParentMax=0;resizeLast=0;collapsible=1;marginBottom=0;whiteSpace=wrap;html=1;" parent="1" vertex="1">
          <mxGeometry x="120" y="535" width="180" height="180" as="geometry" />
        </mxCell>
        <mxCell id="MrTeLE-fRb-JpKuM4ANt-17" value="String name" style="text;strokeColor=none;fillColor=none;align=left;verticalAlign=middle;spacingLeft=4;spacingRight=4;overflow=hidden;points=[[0,0.5],[1,0.5]];portConstraint=eastwest;rotatable=0;whiteSpace=wrap;html=1;" parent="MrTeLE-fRb-JpKuM4ANt-16" vertex="1">
          <mxGeometry y="30" width="180" height="30" as="geometry" />
        </mxCell>
        <mxCell id="MrTeLE-fRb-JpKuM4ANt-18" value="int grade" style="text;strokeColor=none;fillColor=none;align=left;verticalAlign=middle;spacingLeft=4;spacingRight=4;overflow=hidden;points=[[0,0.5],[1,0.5]];portConstraint=eastwest;rotatable=0;whiteSpace=wrap;html=1;" parent="MrTeLE-fRb-JpKuM4ANt-16" vertex="1">
          <mxGeometry y="60" width="180" height="30" as="geometry" />
        </mxCell>
        <mxCell id="ndUTzzxAapbC7wvVWWkG-9" value="Materia(String name, int grade)" style="text;strokeColor=none;fillColor=none;align=left;verticalAlign=middle;spacingLeft=4;spacingRight=4;overflow=hidden;points=[[0,0.5],[1,0.5]];portConstraint=eastwest;rotatable=0;whiteSpace=wrap;html=1;" vertex="1" parent="MrTeLE-fRb-JpKuM4ANt-16">
          <mxGeometry y="90" width="180" height="30" as="geometry" />
        </mxCell>
        <mxCell id="ndUTzzxAapbC7wvVWWkG-10" value="String toString()" style="text;strokeColor=none;fillColor=none;align=left;verticalAlign=middle;spacingLeft=4;spacingRight=4;overflow=hidden;points=[[0,0.5],[1,0.5]];portConstraint=eastwest;rotatable=0;whiteSpace=wrap;html=1;" vertex="1" parent="MrTeLE-fRb-JpKuM4ANt-16">
          <mxGeometry y="120" width="180" height="30" as="geometry" />
        </mxCell>
        <mxCell id="ndUTzzxAapbC7wvVWWkG-11" value="boolean equals(Object o)" style="text;strokeColor=none;fillColor=none;align=left;verticalAlign=middle;spacingLeft=4;spacingRight=4;overflow=hidden;points=[[0,0.5],[1,0.5]];portConstraint=eastwest;rotatable=0;whiteSpace=wrap;html=1;" vertex="1" parent="MrTeLE-fRb-JpKuM4ANt-16">
          <mxGeometry y="150" width="180" height="30" as="geometry" />
        </mxCell>
        <mxCell id="ndUTzzxAapbC7wvVWWkG-3" style="edgeStyle=orthogonalEdgeStyle;rounded=0;orthogonalLoop=1;jettySize=auto;html=1;exitX=1;exitY=0.5;exitDx=0;exitDy=0;entryX=0.5;entryY=0;entryDx=0;entryDy=0;" edge="1" parent="1" source="MrTeLE-fRb-JpKuM4ANt-11" target="MrTeLE-fRb-JpKuM4ANt-12">
          <mxGeometry relative="1" as="geometry" />
        </mxCell>
        <mxCell id="ndUTzzxAapbC7wvVWWkG-5" style="edgeStyle=orthogonalEdgeStyle;rounded=0;orthogonalLoop=1;jettySize=auto;html=1;exitX=0;exitY=0.5;exitDx=0;exitDy=0;entryX=0.5;entryY=0;entryDx=0;entryDy=0;" edge="1" parent="1" source="ndUTzzxAapbC7wvVWWkG-1" target="MrTeLE-fRb-JpKuM4ANt-16">
          <mxGeometry relative="1" as="geometry" />
        </mxCell>
        <mxCell id="ndUTzzxAapbC7wvVWWkG-12" value="Override the default class methods" style="text;html=1;align=center;verticalAlign=middle;whiteSpace=wrap;rounded=0;" vertex="1" parent="1">
          <mxGeometry x="370" y="730" width="110" height="30" as="geometry" />
        </mxCell>
        <mxCell id="ndUTzzxAapbC7wvVWWkG-14" style="edgeStyle=orthogonalEdgeStyle;rounded=0;orthogonalLoop=1;jettySize=auto;html=1;exitX=0;exitY=0.5;exitDx=0;exitDy=0;entryX=0.5;entryY=0;entryDx=0;entryDy=0;" edge="1" parent="1" source="ndUTzzxAapbC7wvVWWkG-6" target="ndUTzzxAapbC7wvVWWkG-12">
          <mxGeometry relative="1" as="geometry">
            <mxPoint x="440" y="690" as="targetPoint" />
          </mxGeometry>
        </mxCell>
        <mxCell id="ndUTzzxAapbC7wvVWWkG-15" style="edgeStyle=orthogonalEdgeStyle;rounded=0;orthogonalLoop=1;jettySize=auto;html=1;exitX=1;exitY=0.5;exitDx=0;exitDy=0;entryX=0.5;entryY=0;entryDx=0;entryDy=0;" edge="1" parent="1" source="ndUTzzxAapbC7wvVWWkG-11" target="ndUTzzxAapbC7wvVWWkG-12">
          <mxGeometry relative="1" as="geometry" />
        </mxCell>
        <mxCell id="ndUTzzxAapbC7wvVWWkG-16" style="edgeStyle=orthogonalEdgeStyle;rounded=0;orthogonalLoop=1;jettySize=auto;html=1;exitX=0;exitY=0.5;exitDx=0;exitDy=0;entryX=0.5;entryY=0;entryDx=0;entryDy=0;" edge="1" parent="1" source="ndUTzzxAapbC7wvVWWkG-7" target="ndUTzzxAapbC7wvVWWkG-12">
          <mxGeometry relative="1" as="geometry" />
        </mxCell>
      </root>
    </mxGraphModel>
  </diagram>
  <diagram id="za8_f7pkw1Okg9Lvd67x" name="Relation">
    <mxGraphModel dx="985" dy="508" grid="1" gridSize="10" guides="1" tooltips="1" connect="1" arrows="1" fold="1" page="1" pageScale="1" pageWidth="850" pageHeight="1100" math="0" shadow="0">
      <root>
        <mxCell id="0" />
        <mxCell id="1" parent="0" />
        <mxCell id="WkLfvCKQvkTSO2kjewsl-34" style="rounded=0;orthogonalLoop=1;jettySize=auto;html=1;exitX=0;exitY=1;exitDx=0;exitDy=0;exitPerimeter=0;entryX=0.5;entryY=0;entryDx=0;entryDy=0;fontStyle=1" parent="1" source="WkLfvCKQvkTSO2kjewsl-3" target="WkLfvCKQvkTSO2kjewsl-30" edge="1">
          <mxGeometry relative="1" as="geometry" />
        </mxCell>
        <mxCell id="WkLfvCKQvkTSO2kjewsl-35" style="rounded=0;orthogonalLoop=1;jettySize=auto;html=1;exitX=1;exitY=1;exitDx=0;exitDy=0;exitPerimeter=0;entryX=0.5;entryY=0;entryDx=0;entryDy=0;fontStyle=1" parent="1" source="WkLfvCKQvkTSO2kjewsl-3" target="WkLfvCKQvkTSO2kjewsl-31" edge="1">
          <mxGeometry relative="1" as="geometry" />
        </mxCell>
        <mxCell id="WkLfvCKQvkTSO2kjewsl-3" value="" style="verticalLabelPosition=bottom;verticalAlign=top;html=1;shape=mxgraph.basic.acute_triangle;dx=0.5;fontStyle=1" parent="1" vertex="1">
          <mxGeometry x="480" y="470" width="100" height="70" as="geometry" />
        </mxCell>
        <mxCell id="P9kIbsp8LDJ0yAiZaaBY-6" style="edgeStyle=orthogonalEdgeStyle;curved=1;rounded=0;orthogonalLoop=1;jettySize=auto;html=1;exitX=1;exitY=0.5;exitDx=0;exitDy=0;entryX=0.5;entryY=0;entryDx=0;entryDy=0;fontStyle=1" edge="1" parent="1" source="WkLfvCKQvkTSO2kjewsl-29" target="aiUdpH_n1fZ9fMOCPrTT-11">
          <mxGeometry relative="1" as="geometry" />
        </mxCell>
        <mxCell id="WkLfvCKQvkTSO2kjewsl-29" value="&lt;span&gt;Node&lt;/span&gt;" style="rounded=0;whiteSpace=wrap;html=1;fontStyle=1" parent="1" vertex="1">
          <mxGeometry x="470" y="350" width="120" height="60" as="geometry" />
        </mxCell>
        <mxCell id="P9kIbsp8LDJ0yAiZaaBY-7" style="edgeStyle=orthogonalEdgeStyle;curved=1;rounded=0;orthogonalLoop=1;jettySize=auto;html=1;exitX=0.5;exitY=1;exitDx=0;exitDy=0;entryX=0;entryY=0.5;entryDx=0;entryDy=0;fontStyle=1" edge="1" parent="1" source="WkLfvCKQvkTSO2kjewsl-30" target="aiUdpH_n1fZ9fMOCPrTT-12">
          <mxGeometry relative="1" as="geometry" />
        </mxCell>
        <mxCell id="P9kIbsp8LDJ0yAiZaaBY-8" style="edgeStyle=orthogonalEdgeStyle;curved=1;rounded=0;orthogonalLoop=1;jettySize=auto;html=1;exitX=1;exitY=1;exitDx=0;exitDy=0;entryX=0.75;entryY=0;entryDx=0;entryDy=0;fontStyle=1" edge="1" parent="1" source="WkLfvCKQvkTSO2kjewsl-30" target="aiUdpH_n1fZ9fMOCPrTT-13">
          <mxGeometry relative="1" as="geometry" />
        </mxCell>
        <mxCell id="WkLfvCKQvkTSO2kjewsl-30" value="Singly_Node" style="rounded=0;whiteSpace=wrap;html=1;fontStyle=1" parent="1" vertex="1">
          <mxGeometry x="360" y="580" width="120" height="60" as="geometry" />
        </mxCell>
        <mxCell id="P9kIbsp8LDJ0yAiZaaBY-9" style="edgeStyle=orthogonalEdgeStyle;curved=1;rounded=0;orthogonalLoop=1;jettySize=auto;html=1;exitX=1;exitY=0.5;exitDx=0;exitDy=0;entryX=1;entryY=0.5;entryDx=0;entryDy=0;fontStyle=1" edge="1" parent="1" source="WkLfvCKQvkTSO2kjewsl-31" target="aiUdpH_n1fZ9fMOCPrTT-15">
          <mxGeometry relative="1" as="geometry">
            <Array as="points">
              <mxPoint x="1070" y="610" />
              <mxPoint x="1070" y="1052" />
            </Array>
          </mxGeometry>
        </mxCell>
        <mxCell id="WkLfvCKQvkTSO2kjewsl-31" value="Doubly_Node" style="rounded=0;whiteSpace=wrap;html=1;fontStyle=1" parent="1" vertex="1">
          <mxGeometry x="580" y="580" width="120" height="60" as="geometry" />
        </mxCell>
        <mxCell id="WkLfvCKQvkTSO2kjewsl-33" style="edgeStyle=orthogonalEdgeStyle;curved=1;rounded=0;orthogonalLoop=1;jettySize=auto;html=1;exitX=0.5;exitY=1;exitDx=0;exitDy=0;entryX=0;entryY=0;entryDx=50;entryDy=0;entryPerimeter=0;fontStyle=1" parent="1" source="WkLfvCKQvkTSO2kjewsl-29" target="WkLfvCKQvkTSO2kjewsl-3" edge="1">
          <mxGeometry relative="1" as="geometry" />
        </mxCell>
        <mxCell id="aiUdpH_n1fZ9fMOCPrTT-4" value="&lt;span&gt;FF7_Types.Character&lt;/span&gt;&lt;div&gt;&lt;span&gt;(Party)&lt;/span&gt;&lt;/div&gt;" style="rounded=0;whiteSpace=wrap;html=1;fontStyle=1" parent="1" vertex="1">
          <mxGeometry x="710.5" y="1180" width="153" height="60" as="geometry" />
        </mxCell>
        <mxCell id="aiUdpH_n1fZ9fMOCPrTT-5" value="Inventory" style="rounded=0;whiteSpace=wrap;html=1;fontStyle=1" parent="1" vertex="1">
          <mxGeometry x="540" y="1082" width="120" height="60" as="geometry" />
        </mxCell>
        <mxCell id="aiUdpH_n1fZ9fMOCPrTT-6" value="FF7_Types.Materia&lt;div&gt;(Materia Ring)&lt;/div&gt;" style="rounded=0;whiteSpace=wrap;html=1;fontStyle=1" parent="1" vertex="1">
          <mxGeometry x="930" y="1082" width="133" height="60" as="geometry" />
        </mxCell>
        <mxCell id="aiUdpH_n1fZ9fMOCPrTT-8" style="rounded=0;orthogonalLoop=1;jettySize=auto;html=1;exitX=0;exitY=1;exitDx=0;exitDy=0;exitPerimeter=0;entryX=0.5;entryY=0;entryDx=0;entryDy=0;fontStyle=1" parent="1" source="aiUdpH_n1fZ9fMOCPrTT-10" target="aiUdpH_n1fZ9fMOCPrTT-12" edge="1">
          <mxGeometry relative="1" as="geometry" />
        </mxCell>
        <mxCell id="aiUdpH_n1fZ9fMOCPrTT-9" style="rounded=0;orthogonalLoop=1;jettySize=auto;html=1;exitX=1;exitY=1;exitDx=0;exitDy=0;exitPerimeter=0;entryX=0.5;entryY=0;entryDx=0;entryDy=0;fontStyle=1" parent="1" source="aiUdpH_n1fZ9fMOCPrTT-10" target="aiUdpH_n1fZ9fMOCPrTT-13" edge="1">
          <mxGeometry relative="1" as="geometry" />
        </mxCell>
        <mxCell id="aiUdpH_n1fZ9fMOCPrTT-16" style="edgeStyle=none;rounded=0;orthogonalLoop=1;jettySize=auto;html=1;exitX=0.5;exitY=1;exitDx=0;exitDy=0;exitPerimeter=0;entryX=0.5;entryY=0;entryDx=0;entryDy=0;fontStyle=1" parent="1" source="aiUdpH_n1fZ9fMOCPrTT-10" target="aiUdpH_n1fZ9fMOCPrTT-15" edge="1">
          <mxGeometry relative="1" as="geometry" />
        </mxCell>
        <mxCell id="aiUdpH_n1fZ9fMOCPrTT-10" value="" style="verticalLabelPosition=bottom;verticalAlign=top;html=1;shape=mxgraph.basic.acute_triangle;dx=0.5;fontStyle=1" parent="1" vertex="1">
          <mxGeometry x="737" y="832" width="100" height="70" as="geometry" />
        </mxCell>
        <mxCell id="aiUdpH_n1fZ9fMOCPrTT-11" value="&lt;span&gt;Linked_List&lt;/span&gt;" style="rounded=0;whiteSpace=wrap;html=1;fontStyle=1" parent="1" vertex="1">
          <mxGeometry x="727" y="712" width="120" height="60" as="geometry" />
        </mxCell>
        <mxCell id="yvWTL9gaMoRvzs6lk3nC-2" style="edgeStyle=none;rounded=0;orthogonalLoop=1;jettySize=auto;html=1;exitX=0.5;exitY=1;exitDx=0;exitDy=0;entryX=0.5;entryY=0;entryDx=0;entryDy=0;fontStyle=1" edge="1" parent="1" source="aiUdpH_n1fZ9fMOCPrTT-12" target="aiUdpH_n1fZ9fMOCPrTT-5">
          <mxGeometry relative="1" as="geometry" />
        </mxCell>
        <mxCell id="aiUdpH_n1fZ9fMOCPrTT-12" value="Singly_Linked_List" style="rounded=0;whiteSpace=wrap;html=1;fontStyle=1" parent="1" vertex="1">
          <mxGeometry x="614" y="942" width="123" height="60" as="geometry" />
        </mxCell>
        <mxCell id="yvWTL9gaMoRvzs6lk3nC-4" style="edgeStyle=none;rounded=0;orthogonalLoop=1;jettySize=auto;html=1;exitX=0.5;exitY=1;exitDx=0;exitDy=0;entryX=0.5;entryY=0;entryDx=0;entryDy=0;fontStyle=1" edge="1" parent="1" source="aiUdpH_n1fZ9fMOCPrTT-13" target="aiUdpH_n1fZ9fMOCPrTT-6">
          <mxGeometry relative="1" as="geometry" />
        </mxCell>
        <mxCell id="aiUdpH_n1fZ9fMOCPrTT-13" value="Circular_Linked_List" style="rounded=0;whiteSpace=wrap;html=1;fontStyle=1" parent="1" vertex="1">
          <mxGeometry x="825" y="942" width="137" height="60" as="geometry" />
        </mxCell>
        <mxCell id="aiUdpH_n1fZ9fMOCPrTT-14" style="edgeStyle=orthogonalEdgeStyle;curved=1;rounded=0;orthogonalLoop=1;jettySize=auto;html=1;exitX=0.5;exitY=1;exitDx=0;exitDy=0;entryX=0;entryY=0;entryDx=50;entryDy=0;entryPerimeter=0;fontStyle=1" parent="1" source="aiUdpH_n1fZ9fMOCPrTT-11" target="aiUdpH_n1fZ9fMOCPrTT-10" edge="1">
          <mxGeometry relative="1" as="geometry" />
        </mxCell>
        <mxCell id="yvWTL9gaMoRvzs6lk3nC-3" style="edgeStyle=none;rounded=0;orthogonalLoop=1;jettySize=auto;html=1;exitX=0.5;exitY=1;exitDx=0;exitDy=0;entryX=0.5;entryY=0;entryDx=0;entryDy=0;fontStyle=1" edge="1" parent="1" source="aiUdpH_n1fZ9fMOCPrTT-15" target="aiUdpH_n1fZ9fMOCPrTT-4">
          <mxGeometry relative="1" as="geometry" />
        </mxCell>
        <mxCell id="aiUdpH_n1fZ9fMOCPrTT-15" value="Doubly_Linked_List" style="rounded=0;whiteSpace=wrap;html=1;fontStyle=1" parent="1" vertex="1">
          <mxGeometry x="723.5" y="1022" width="127" height="60" as="geometry" />
        </mxCell>
        <mxCell id="dcabMy628f1_i9ErlTSg-4" value="&lt;span&gt;&lt;font style=&quot;font-size: 36px;&quot;&gt;FINAL FANTASY VII&lt;/font&gt;&lt;/span&gt;" style="text;html=1;align=center;verticalAlign=middle;resizable=0;points=[];autosize=1;strokeColor=none;fillColor=none;fontStyle=1" parent="1" vertex="1">
          <mxGeometry x="612" y="1280" width="350" height="60" as="geometry" />
        </mxCell>
        <mxCell id="yvWTL9gaMoRvzs6lk3nC-5" value="Used by another class" style="text;html=1;align=center;verticalAlign=middle;resizable=0;points=[];autosize=1;strokeColor=none;fillColor=none;fontStyle=1" vertex="1" parent="1">
          <mxGeometry x="670" y="380" width="140" height="30" as="geometry" />
        </mxCell>
        <mxCell id="yvWTL9gaMoRvzs6lk3nC-6" value="Forms two linked&lt;div&gt;&lt;span style=&quot;background-color: transparent; color: light-dark(rgb(0, 0, 0), rgb(255, 255, 255));&quot;&gt;list classes&lt;/span&gt;&lt;/div&gt;" style="text;html=1;align=center;verticalAlign=middle;resizable=0;points=[];autosize=1;strokeColor=none;fillColor=none;fontStyle=1" vertex="1" parent="1">
          <mxGeometry x="420" y="732" width="110" height="40" as="geometry" />
        </mxCell>
        <mxCell id="yvWTL9gaMoRvzs6lk3nC-7" value="Forms one linked list class" style="text;html=1;align=center;verticalAlign=middle;resizable=0;points=[];autosize=1;strokeColor=none;fillColor=none;fontStyle=1" vertex="1" parent="1">
          <mxGeometry x="850" y="590" width="160" height="30" as="geometry" />
        </mxCell>
        <mxCell id="yvWTL9gaMoRvzs6lk3nC-8" value="Implemented as" style="text;html=1;align=center;verticalAlign=middle;resizable=0;points=[];autosize=1;strokeColor=none;fillColor=none;fontStyle=1" vertex="1" parent="1">
          <mxGeometry x="520" y="1022" width="110" height="30" as="geometry" />
        </mxCell>
        <mxCell id="yvWTL9gaMoRvzs6lk3nC-9" value="Implemented as" style="text;html=1;align=center;verticalAlign=middle;resizable=0;points=[];autosize=1;strokeColor=none;fillColor=none;fontStyle=1" vertex="1" parent="1">
          <mxGeometry x="780" y="1112" width="110" height="30" as="geometry" />
        </mxCell>
        <mxCell id="yvWTL9gaMoRvzs6lk3nC-10" value="Implemented as" style="text;html=1;align=center;verticalAlign=middle;resizable=0;points=[];autosize=1;strokeColor=none;fillColor=none;fontStyle=1" vertex="1" parent="1">
          <mxGeometry x="970" y="1037" width="110" height="30" as="geometry" />
        </mxCell>
      </root>
    </mxGraphModel>
  </diagram>
</mxfile>
